<svg viewBox="1 1 511.99998 511.99998" xmlns="http://www.w3.org/2000/svg"><path d="m512 256c0 141.386719-114.613281 256-256 256s-256-114.613281-256-256 114.613281-256 256-256 256 114.613281 256 256zm0 0" fill="#ff4f9b"/><path d="m58.257812 53.707031c-19.101562 0-34.582031 15.480469-34.582031 34.578125v230.960938l84.113281-65.972656h196.328126c19.097656 0 34.578124-15.480469 34.578124-34.582032v-130.40625c0-19.097656-15.480468-34.578125-34.578124-34.578125zm0 0" fill="#583377"/><path d="m251.878906 156.46875c0 39.042969-31.648437 70.691406-70.695312 70.691406-39.042969 0-70.691406-31.648437-70.691406-70.691406 0-39.046875 31.648437-70.695312 70.691406-70.695312 39.046875 0 70.695312 31.648437 70.695312 70.695312zm0 0" fill="#fcda42"/><g fill="#475866"><path d="m149.875 149.757812c-2.671875 0-5.292969-1.085937-7.191406-2.984374-1.898438-1.886719-2.984375-4.519532-2.984375-7.195313 0-2.671875 1.085937-5.304687 2.984375-7.191406 1.898437-1.898438 4.519531-2.984375 7.191406-2.984375 2.6875 0 5.304688 1.085937 7.207031 2.984375 1.882813 1.886719 2.96875 4.519531 2.96875 7.191406 0 2.675781-1.085937 5.304687-2.96875 7.195313-1.902343 1.898437-4.519531 2.984374-7.207031 2.984374zm0 0"/><path d="m212.480469 149.757812c-2.671875 0-5.289063-1.085937-7.191407-2.984374-1.898437-1.886719-2.984374-4.519532-2.984374-7.195313 0-2.683594 1.085937-5.304687 2.984374-7.191406 1.902344-1.898438 4.519532-2.984375 7.191407-2.984375 2.6875 0 5.308593 1.085937 7.207031 2.984375 1.886719 1.886719 2.972656 4.503906 2.972656 7.191406s-1.085937 5.304687-2.972656 7.195313c-1.898438 1.898437-4.519531 2.984374-7.207031 2.984374zm0 0"/><path d="m181.183594 197.855469c-14.039063 0-28.085938-5.347657-38.773438-16.035157-2.808594-2.808593-2.808594-7.355468-.003906-10.160156 2.808594-2.808594 7.355469-2.808594 10.160156 0 15.785156 15.777344 41.457032 15.777344 57.238282 0 2.804687-2.808594 7.351562-2.808594 10.15625 0 2.808593 2.804688 2.808593 7.351563 0 10.160156-10.6875 10.6875-24.730469 16.035157-38.777344 16.035157zm0 0"/></g><path d="m492.808594 246.0625v107.363281c-12.589844 30.582031-30.941406 58.199219-53.699219 81.480469l-30.414063-23.855469h-196.328124c-19.089844 0-34.574219-15.484375-34.574219-34.585937v-130.402344c0-19.101562 15.484375-34.585938 34.574219-34.585938h245.867187c19.097656 0 34.574219 15.484376 34.574219 34.585938zm0 0" fill="#5a9ed1"/><path d="m414.136719 312.660156c0 43.542969-35.296875 78.839844-78.835938 78.839844-43.542969 0-78.839843-35.296875-78.839843-78.839844 0-43.539062 35.296874-78.835937 78.839843-78.835937 43.539063 0 78.835938 35.296875 78.835938 78.835937zm0 0" fill="#fcda42"/><path d="m300.390625 304c-2.683594 0-5.304687-1.085938-7.191406-2.972656-1.898438-1.898438-2.984375-4.519532-2.984375-7.207032 0-2.671874 1.085937-5.289062 2.984375-7.1875 1.886719-1.902343 4.507812-2.988281 7.191406-2.988281 2.6875 0 5.308594 1.085938 7.191406 2.988281 1.902344 1.898438 2.988281 4.515626 2.988281 7.1875 0 2.6875-1.085937 5.308594-2.988281 7.207032-1.882812 1.886718-4.503906 2.972656-7.191406 2.972656zm0 0" fill="#475866"/><path d="m370.203125 304c-2.671875 0-5.292969-1.085938-7.191406-2.972656-1.898438-1.898438-2.984375-4.519532-2.984375-7.207032 0-2.671874 1.085937-5.304687 2.984375-7.1875 1.898437-1.902343 4.519531-2.988281 7.191406-2.988281 2.6875 0 5.304687 1.085938 7.207031 2.988281 1.882813 1.882813 2.96875 4.515626 2.96875 7.1875 0 2.6875-1.085937 5.308594-2.96875 7.207032-1.902344 1.886718-4.519531 2.972656-7.207031 2.972656zm0 0" fill="#475866"/><path d="m301.71875 323.949219c0 18.546875 15.035156 33.582031 33.582031 33.582031s33.582031-15.035156 33.582031-33.582031zm0 0" fill="#475866"/></svg>