<?xml version="1.0"?>
<svg xmlns="http://www.w3.org/2000/svg" height="512px" viewBox="-3 0 458 458.53152" width="512px"><g><path d="m.519531 124.167969c-1.09375 4.265625 1.421875 8.617187 5.664063 9.800781l124 33.472656c.464844-2.617187.992187-5.234375 1.695312-7.839844l2.097656-7.722656-123.578124-33.359375c-4.28125-1.113281-8.664063 1.394531-9.878907 5.648438zm0 0" data-original="#000000" class="active-path" data-old_color="#000000" fill="#5D5B5B"/><path d="m206.640625 184c.847656.34375 1.726563.6875 2.589844 1.023438 3.792969 1.496093 7.65625 2.984374 11.671875 4.457031l2.199218.800781c5.195313 1.875 10.546876 3.726562 16.058594 5.550781l1.429688.464844c4.9375 1.597656 10 3.199219 15.136718 4.800781 1.128907.335938 2.234376.679688 3.375 1.015625 5.722657 1.703125 11.511719 3.367188 17.394532 4.949219 5.878906 1.585938 11.71875 3.074219 17.503906 4.480469l3.472656.800781c5.214844 1.25 10.398438 2.398438 15.476563 3.519531l1.417969.304688c5.683593 1.207031 11.257812 2.308593 16.71875 3.304687l2.210937.382813c4.253906.761719 8.382813 1.433593 12.445313 2.054687l2.722656.417969c-22.835938-9.003906-46.167969-16.6875-69.882813-23.015625-23.667969-6.472656-47.6875-11.582031-71.941406-15.3125zm0 0" data-original="#000000" class="active-path" data-old_color="#000000" fill="#5D5B5B"/><path d="m165.832031 164.382812c39.609375 1.824219 78.859375 8.355469 116.925781 19.449219 38.46875 9.65625 75.667969 23.789063 110.839844 42.113281 6.464844.417969 12.941406-.570312 18.984375-2.890624-4.894531-9.191407-48.414062-33.796876-125.597656-54.664063-77.183594-20.863281-127.203125-21.535156-136.066406-16.054687 4.054687 5.035156 9.140625 9.140624 14.914062 12.046874zm0 0" data-original="#000000" class="active-path" data-old_color="#000000" fill="#5D5B5B"/><path d="m379.0625 241.601562h-.421875c-1.457031-.082031-2.847656-.136718-4.371094-.25-2.519531-.175781-5.183593-.441406-7.832031-.695312l-.414062-.039062c-13.265626-1.304688-28-3.519532-43.671876-6.546876-.320312-.0625-.640624-.132812-.96875-.191406-4.609374-.898437-9.28125-1.867187-14.015624-2.902344l-2.847657-.617187c-4.191406-.9375-8.421875-1.921875-12.6875-2.953125-1.21875-.285156-2.402343-.566406-3.632812-.871094-5.253907-1.296875-10.542969-2.65625-15.871094-4.085937-2.136719-.578125-6.6875-1.832031-12.800781-3.625-14.992188-4.34375-29.359375-9.03125-42.734375-13.902344-2.058594-.75-4.128907-1.507813-6.210938-2.28125l-3.351562-1.25c-21.875-7.394531-42.507813-18.039063-61.214844-31.574219-.972656 5.363282-1.335937 10.820313-1.074219 16.261719.097656.089844.226563.113281.3125.203125 9.3125 9.078125 32.136719 20.863281 62.601563 32.34375 3.617187 1.359375 5.746093 5.113281 5.054687 8.917969-.691406 3.804687-4.003906 6.570312-7.871094 6.570312-.964843-.003906-1.921874-.175781-2.824218-.511719-18.023438-6.492187-35.4375-14.554687-52.046875-24.097656 8.371093 20.925782 26.085937 36.707032 47.839843 42.617188l123.597657 33.359375c36.042969 9.707031 73.527343-9.742188 86.34375-44.800781-5.769531.917968-11.609375 1.351562-17.453125 1.296874-3.527344.023438-7.394532-.128906-11.433594-.375zm-120.726562 1.910157c-1 3.40625-4.121094 5.75-7.671876 5.753906-.765624-.003906-1.523437-.117187-2.257812-.328125-5.261719-1.554688-10.421875-3.132812-15.480469-4.738281-4.210937-1.339844-6.539062-5.835938-5.199219-10.046875 1.339844-4.210938 5.839844-6.539063 10.046876-5.199219 4.933593 1.566406 9.984374 3.109375 15.144531 4.632813 2.039062.597656 3.757812 1.984374 4.773437 3.851562s1.25 4.058594.644532 6.097656zm46.597656 11.503906c-.8125 3.652344-4.050782 6.25-7.789063 6.257813-.589843-.003907-1.179687-.066407-1.753906-.195313-5.171875-1.148437-10.425781-2.386719-15.757813-3.710937-4.21875-1.121094-6.761718-5.417969-5.710937-9.65625 1.050781-4.234376 5.304687-6.847657 9.558594-5.871094 5.207031 1.289062 10.351562 2.496094 15.390625 3.625 2.074218.460937 3.882812 1.730468 5.019531 3.527344 1.140625 1.796874 1.515625 3.972656 1.042969 6.046874zm0 0" data-original="#000000" class="active-path" data-old_color="#000000" fill="#5D5B5B"/><path d="m331.855469 12c0-6.628906-5.371094-12-12-12h-24c-6.628907 0-12 5.371094-12 12s5.371093 12 12 12h.640625v20h23.503906v-20c6.570312-.078125 11.855469-5.429688 11.855469-12zm0 0" data-original="#000000" class="active-path" data-old_color="#000000" fill="#5D5B5B"/><path d="m386.136719 109.65625-19.152344-23.511719 23.503906-19.199219 19.199219 23.511719zm0 0" data-original="#000000" class="active-path" data-old_color="#000000" fill="#5D5B5B"/><path d="m235.855469 72c-8.835938 0-16-7.164062-16-16s7.164062-16 16-16c8.835937 0 16 7.164062 16 16s-7.164063 16-16 16zm0 0" data-original="#000000" class="active-path" data-old_color="#000000" fill="#5D5B5B"/><path d="m227.855469 104h16v16h-16zm0 0" data-original="#000000" class="active-path" data-old_color="#000000" fill="#5D5B5B"/><path d="m299.855469 88h16v16h-16zm0 0" data-original="#000000" class="active-path" data-old_color="#000000" fill="#5D5B5B"/><path d="m299.855469 120h16v24h-16zm0 0" data-original="#000000" class="active-path" data-old_color="#000000" fill="#5D5B5B"/><path d="m387.855469 128h16v16h-16zm0 0" data-original="#000000" class="active-path" data-old_color="#000000" fill="#5D5B5B"/><path d="m387.855469 160h16v16h-16zm0 0" data-original="#000000" class="active-path" data-old_color="#000000" fill="#5D5B5B"/><path d="m139.21875 364.109375 17.789062-31.996094 13.984376 7.773438-17.785157 31.996093zm0 0" data-original="#000000" class="active-path" data-old_color="#000000" fill="#5D5B5B"/><path d="m124.75 435.566406 7.65625 22.960938 15.199219-5.054688-7.65625-22.960937c-4.59375-13.828125-3.1875-28.953125 3.882812-41.695313l-13.984375-7.777344c-9.25 16.664063-11.097656 36.441407-5.097656 54.527344zm0 0" data-original="#000000" class="active-path" data-old_color="#000000" fill="#5D5B5B"/><path d="m174.632812 430.519531c-4.585937-13.824219-3.175781-28.9375 3.878907-41.679687l12.207031-21.960938v13.121094c.050781 14.703125 4.816406 29.003906 13.601562 40.800781 4.101563 5.433594 7.042969 11.65625 8.628907 18.277344-.429688 2.953125-.695313 5.925781-.796875 8.90625h-31.671875zm53.445313 17.480469c.667969-12.734375 5.09375-24.984375 12.722656-35.199219 10.355469-13.863281 15.96875-30.695312 16-48v-21.9375l17.597657 31.730469c7.460937 13.476562 9.824218 29.195312 6.648437 44.269531-.792969 3.804688 1.261719 7.625 4.871094 9.0625s7.730469.074219 9.769531-3.230469l.800781-1.390624c.480469-.867188 1.015625-1.703126 1.597657-2.503907 8.800781-11.785156 13.570312-26.09375 13.601562-40.800781v-13.128906l12.246094 21.929687c7.0625 12.75 8.46875 27.871094 3.875 41.703125l-5.824219 17.496094zm0 0" data-original="#000000" class="active-path" data-old_color="#000000" fill="#5D5B5B"/><path d="m330.269531 339.882812 13.984375-7.769531 10.738282 19.320313-13.988282 7.773437zm0 0" data-original="#000000" class="active-path" data-old_color="#000000" fill="#5D5B5B"/><path d="m371.4375 381.039062-8.445312-15.199218-13.984376 7.769531 8.449219 15.199219c4.570313 8.222656 6.832031 17.53125 6.542969 26.933594l16 .515624c.382812-12.296874-2.574219-24.46875-8.5625-35.21875zm0 0" data-original="#000000" class="active-path" data-old_color="#000000" fill="#5D5B5B"/><path d="m353.679688 453.46875 5.339843-15.996094 15.167969 5.0625-5.335938 15.996094zm0 0" data-original="#000000" class="active-path" data-old_color="#000000" fill="#5D5B5B"/><path d="m164.839844 316.425781 8-16 14.3125 7.15625-8 16zm0 0" data-original="#000000" class="active-path" data-old_color="#000000" fill="#5D5B5B"/><path d="m441.65625 109.65625c11.964844-12.015625 13.824219-30.792969 4.445312-44.921875l-3.445312-5.167969-13.3125 8.867188 3.449219 5.183594c5.160156 7.777343 4.136719 18.113281-2.449219 24.726562zm0 0" data-original="#000000" class="active-path" data-old_color="#000000" fill="#5D5B5B"/></g> </svg>
