<svg height="480pt" viewBox="0 -4 480 480" width="480pt" xmlns="http://www.w3.org/2000/svg"><path d="m112 271.945312v192c0 4.417969 3.582031 8 8 8h200c4.417969 0 8-3.582031 8-8v-56h-.734375l46.445313-116.117187c1.511718-3.78125 2.285156-7.8125 2.289062-11.882813v-8c-.027344-22.078124-17.917969-39.972656-40-40h-38.144531l-4.800781-24.296874 2.945312-.175782-7.519531-127.527344h7.519531c13.253906 0 24-10.746093 24-24 0-13.253906-10.746094-24-24-24h-120c-4.417969 0-8 3.582032-8 8v192h-16c-22.082031.027344-39.972656 17.921876-40 40zm64 184v-152h-16v152h-32v-184c0-13.253906 10.746094-24 24-24h83.304688l29.222656 157.832032c2.644531 13.980468 14.164062 24.5625 28.320312 26.007812 1.046875.109375 2.097656.164063 3.152344.160156 5.625-.011718 11.144531-1.511718 16-4.351562v28.351562zm53.375-240 2.960938 16h-16.335938v-16zm90.625 32h16c13.253906 0 24 10.746094 24 24v8c.003906 2.039063-.390625 4.0625-1.152344 5.953126l-48 120c-2.648437 6.609374-9.34375 10.675781-16.429687 9.972656-7.085938-.703125-12.855469-6.003906-14.152344-13.003906l-35.632813-192.402344c-1.582031-8.695313 4.191407-17.027344 12.886719-18.605469 8.699219-1.582031 17.027344 4.191406 18.609375 12.886719l28 140.800781 15.679688-3.121094-18.769532-94.480469zm-41.601562-66.816406c-8.652344-5.925781-19.667969-7.222656-29.460938-3.464844-9.792969 3.757813-17.117188 12.085938-19.585938 22.28125h-45.351562v-65.472656c2.5625.949219 5.269531 1.445313 8 1.472656 13.253906 0 24-10.746093 24-24v-32h56.457031zm-94.398438-101.183594h16v32c0 4.417969-3.582031 8-8 8s-8-3.582031-8-8zm0-32h112c4.417969 0 8 3.582032 8 8 0 4.417969-3.582031 8-8 8h-112zm0 168h16v16h-16zm0 0"/><path d="m228.425781 168.792969 31.996094-16 7.15625 14.3125-32 15.996093zm0 0"/><path d="m376.296875 36.097656c1.742187-10.515625 10.175781-18.644531 20.75-20 6.851563-.875 13.746094 1.269532 18.890625 5.878906 5.726562 5.085938 8.6875 12.601563 7.960938 20.226563-.726563 7.625-5.046876 14.445313-11.632813 18.359375-12.460937 7.160156-20.175781 20.398438-20.265625 34.769531v8.613281h16v-8.613281c.132812-8.710937 4.875-16.695312 12.457031-20.984375 15.921875-9.507812 23.226563-28.710937 17.640625-46.394531-5.585937-17.683594-22.59375-29.210937-41.085937-27.84375-18.496094 1.363281-33.625 15.261719-36.554688 33.574219-.3125 2.070312-.464843 4.167968-.457031 6.261718h16c0-1.289062.101562-2.574218.296875-3.847656zm0 0"/><path d="m392 119.945312h16v16h-16zm0 0"/><path d="m21.71875 139.683594c3.671875-3.085938 8.535156-4.359375 13.25-3.472656 6.476562 1.261718 11.539062 6.324218 12.800781 12.800781 1.300781 6.796875-1.929687 13.664062-8 16.992187-9.699219 5.015625-15.78125 15.027344-15.769531 25.941406l16-.695312c.222656-4.835938 3.078125-9.160156 7.441406-11.265625 13.671875-7.53125 19.914063-23.824219 14.773438-38.5625s-20.164063-23.621094-35.554688-21.015625c-15.386718 2.605469-26.65624975 15.929688-26.660156 31.539062h16c0-4.730468 2.09375-9.222656 5.71875-12.261718zm0 0"/><path d="m24 207.945312h16v16h-16zm0 0"/><path d="m416 239.945312h16c-.003906-4.765624 2.117188-9.285156 5.785156-12.328124 3.667969-3.042969 8.5-4.289063 13.183594-3.40625 6.476562 1.261718 11.539062 6.324218 12.800781 12.800781 1.300781 6.796875-1.929687 13.664062-8 16.992187-9.699219 5.015625-15.78125 15.027344-15.769531 25.941406l16-.695312c.222656-4.835938 3.078125-9.160156 7.441406-11.265625 13.671875-7.53125 19.914063-23.824219 14.773438-38.5625s-20.164063-23.621094-35.554688-21.015625c-15.386718 2.605469-26.65625 15.929688-26.660156 31.539062zm0 0"/><path d="m440 295.945312h16v16h-16zm0 0"/><path d="m104 31.945312c3.464844-.003906 6.542969 2.222657 7.617188 5.515626 1.078124 3.292968-.089844 6.90625-2.890626 8.949218-7.761718 5.3125-12.496093 14.03125-12.726562 23.433594v2.101562h16v-2.101562c.296875-4.289062 2.585938-8.1875 6.183594-10.539062 9.132812-6.6875 12.347656-18.847657 7.714844-29.179688-4.632813-10.328125-15.851563-16.015625-26.917969-13.648438-11.070313 2.367188-18.980469 12.148438-18.980469 23.46875h16c0-4.417968 3.582031-8 8-8zm0 0"/><path d="m96 87.449219h16v16h-16zm0 0"/></svg>