<svg viewBox="1 1 511.99998 511.99998" xmlns="http://www.w3.org/2000/svg"><path d="m512 256c0 31.066406-5.539062 60.832031-15.671875 88.386719-2.539063 6.929687-5.382813 13.722656-8.507813 20.355469-5.851562 12.457031-12.675781 24.355468-20.375 35.609374-27.585937 40.335938-66.414062 72.371094-111.960937 91.597657-9.425781 3.980469-19.132813 7.40625-29.089844 10.25-22.359375 6.382812-45.976562 9.800781-70.394531 9.800781s-48.042969-3.417969-70.40625-9.800781c-35.367188-10.09375-67.613281-27.605469-94.9375-50.75-33.46875-28.339844-59.558594-65.128907-74.984375-107.0625-10.132813-27.554688-15.671875-57.320313-15.671875-88.386719s5.539062-60.832031 15.671875-88.386719c1.882813-5.121093 3.921875-10.15625 6.113281-15.109375 6.511719-14.714844 14.367188-28.695312 23.417969-41.796875 27.53125-39.882812 66.109375-71.574219 111.3125-90.65625 9.75-4.117187 19.8125-7.648437 30.132813-10.542969 22.050781-6.195312 45.320312-9.507812 69.351562-9.507812s47.300781 3.3125 69.351562 9.507812c10.320313 2.894532 20.382813 6.425782 30.132813 10.542969 60.8125 25.675781 109.632813 74.167969 135.734375 134.75 13.371094 31.042969 20.78125 65.253907 20.78125 101.199219zm0 0" fill="#583377"/><path d="m141.429688 110.710938h-110.675782c-8.328125 0-15.082031-6.753907-15.082031-15.082032v-59.644531c0-8.332031 6.753906-15.082031 15.082031-15.082031h110.675782c8.328124 0 15.082031 6.75 15.082031 15.082031v59.644531c0 8.332032-6.753907 15.082032-15.082031 15.082032zm0 0" fill="#ff4f9b"/><path d="m156.515625 164.625v271.734375c0 8.339844-6.761719 15.089844-15.089844 15.089844h-50.769531c-15.925781-13.480469-30.167969-28.871094-42.402344-45.820313-2.445312-3.386718-4.808594-6.84375-7.085937-10.355468-10.292969-15.839844-18.871094-32.890626-25.496094-50.886719v-179.761719c0-4.964844 2.40625-9.375 6.113281-12.121094 2.5-1.859375 5.601563-2.957031 8.964844-2.957031h110.675781c8.328125 0 15.089844 6.75 15.089844 15.078125zm0 0" fill="#ededed"/><path d="m326.414062 317.992188v118.367187c0 3.082031-.917968 5.957031-2.507812 8.339844-2.703125 4.074219-7.324219 6.75-12.570312 6.75h-110.671876c-8.328124 0-15.089843-6.75-15.089843-15.089844v-118.367187c0-8.335938 6.761719-15.085938 15.089843-15.085938h110.671876c8.328124 0 15.078124 6.75 15.078124 15.085938zm0 0" fill="#fff"/><path d="m326.394531 502.199219c-22.359375 6.382812-45.976562 9.800781-70.394531 9.800781s-48.042969-3.417969-70.40625-9.800781c.378906-7.992188 6.992188-14.355469 15.070312-14.355469h110.671876c8.078124 0 14.683593 6.363281 15.058593 14.355469zm0 0" fill="#5a9ed1"/><path d="m311.332031 265.414062h-110.671875c-8.328125 0-15.082031-6.75-15.082031-15.082031v-24.960937c0-8.328125 6.753906-15.082032 15.082031-15.082032h110.671875c8.332031 0 15.085938 6.753907 15.085938 15.082032v24.960937c0 8.332031-6.753907 15.082031-15.085938 15.082031zm0 0" fill="#fcda42"/><path d="m311.332031 171.949219h-110.671875c-8.328125 0-15.082031-6.753907-15.082031-15.082031v-131.332032c0-8.332031 6.753906-15.085937 15.082031-15.085937h110.671875c8.332031 0 15.085938 6.753906 15.085938 15.085937v131.332032c0 8.328124-6.753907 15.082031-15.085938 15.082031zm0 0" fill="#5a9ed1"/><path d="m496.328125 214.820312v129.566407c-2.539063 6.929687-5.382813 13.722656-8.507813 20.355469-1.996093.972656-4.230468 1.515624-6.582031 1.515624h-110.675781c-8.328125 0-15.078125-6.761718-15.078125-15.089843v-136.347657c0-8.328124 6.75-15.078124 15.078125-15.078124h110.675781c8.328125 0 15.089844 6.75 15.089844 15.078124zm0 0" fill="#5a9ed1"/><path d="m467.445312 400.351562c-27.585937 40.335938-66.414062 72.371094-111.960937 91.597657v-76.519531c0-8.328126 6.75-15.078126 15.078125-15.078126zm0 0" fill="#fcda42"/><path d="m370.566406 36.574219h110.671875c8.332031 0 15.085938 6.753906 15.085938 15.082031v91.835938c0 8.332031-6.753907 15.082031-15.085938 15.082031h-110.671875c-8.332031 0-15.082031-6.75-15.082031-15.082031v-91.835938c-.003906-8.328125 6.75-15.082031 15.082031-15.082031zm0 0" fill="#ff4f9b"/><g fill="#384361"><path d="m41.167969 191.5h89.851562v15.113281h-89.851562zm0 0"/><path d="m41.167969 219.929688h89.851562v15.117187h-89.851562zm0 0"/><path d="m41.167969 248.359375h89.851562v15.117187h-89.851562zm0 0"/><path d="m41.167969 276.792969h89.851562v15.113281h-89.851562zm0 0"/><path d="m41.167969 305.222656h89.851562v15.117188h-89.851562zm0 0"/><path d="m41.167969 333.65625h89.851562v15.113281h-89.851562zm0 0"/><path d="m41.167969 362.085938h89.851562v15.113281h-89.851562zm0 0"/><path d="m131.019531 390.519531v15.109375h-82.765625c-2.445312-3.386718-4.808594-6.84375-7.085937-10.355468v-4.753907zm0 0"/><path d="m211.070312 40.996094h89.851563v15.113281h-89.851563zm0 0"/><path d="m211.070312 69.425781h89.851563v15.117188h-89.851563zm0 0"/><path d="m211.070312 97.859375h89.851563v15.113281h-89.851563zm0 0"/><path d="m211.070312 126.289062h89.851563v15.113282h-89.851563zm0 0"/><path d="m380.980469 232.796875h89.847656v15.113281h-89.847656zm0 0"/><path d="m380.980469 261.226562h89.847656v15.117188h-89.847656zm0 0"/><path d="m380.980469 289.660156h89.847656v15.113282h-89.847656zm0 0"/><path d="m380.980469 318.089844h89.847656v15.113281h-89.847656zm0 0"/></g><path d="m326.414062 369.027344v67.332031c0 3.082031-.917968 5.957031-2.507812 8.339844-2.703125 4.074219-7.324219 6.75-12.570312 6.75h-110.671876c-8.328124 0-15.089843-6.75-15.089843-15.089844v-21.890625l44.691406-32.003906 47.875 31.816406zm0 0" fill="#f4a441"/><path d="m243.589844 348.234375c0 10.457031-8.476563 18.9375-18.9375 18.9375-10.457032 0-18.9375-8.480469-18.9375-18.9375 0-10.460937 8.480468-18.9375 18.9375-18.9375 10.460937 0 18.9375 8.476563 18.9375 18.9375zm0 0" fill="#fcda42"/><path d="m326.414062 369.035156v67.324219c0 3.082031-.917968 5.957031-2.507812 8.339844l-45.765625-30.417969zm0 0" fill="#fcda42"/><path d="m230.265625 382.464844-19.4375 68.984375h-10.164063c-8.328124 0-15.089843-6.75-15.089843-15.089844v-21.890625zm0 0" fill="#fcda42"/></svg>